<svg width="250" height="130" viewBox="0 0 250 130" fill="none" xmlns="http://www.w3.org/2000/svg">
<path fill-rule="evenodd" clip-rule="evenodd" d="M233.287 27.2183C233.287 27.4954 235.89 43.117 229.497 60.3429C226.75 67.7473 222.962 74.5724 219.528 81.6268L199.602 37.8284L199.603 37.828C199.603 37.828 197.277 31.7632 192.043 27.6133C189.302 25.4399 183.612 23.1445 177.506 23.4634C173.854 23.6547 168.644 24.6671 162.953 26.5591C158.567 24.3235 153.37 23.0656 147.373 23.0656C125.882 23.0656 114.472 39.1194 114.472 58.9438C114.472 78.7688 125.882 95.0653 147.373 95.0653C168.863 95.0653 180.162 78.7688 180.162 58.9438C180.162 52.199 178.847 45.8948 176.274 40.5073L173.975 36.44C172.488 34.2035 170.728 32.1977 168.717 30.4496C169.846 30.3061 170.944 30.2054 171.982 30.1669C182.739 30.4863 187.971 42.0002 188.52 42.8803L212.881 95.6131L211.995 97.4374C205.09 111.56 192.401 111.718 192.401 111.718V129.435C196.289 129.435 205.97 117.357 216.855 95.4915L231.034 66.1807C233.351 60.8201 245.717 34.6218 249.605 27.2183L239.767 27.2238M129.419 67.708C129.426 62.1613 130.832 52.5765 139.124 44.5315C145.061 38.7708 152.621 34.7695 159.773 32.474C161.82 35.249 166.089 43.015 166.089 57.938C166.089 80.6047 160.772 92.2528 147.368 92.2528C141.628 92.2528 129.419 89.2202 129.419 67.708ZM156.509 29.0163C152.117 30.914 147.677 33.3092 143.632 36.2318C136.954 41.0585 131.655 45.9911 128.966 51.678C129.75 33.6254 137.639 25.8487 147.073 25.6983C150.555 25.643 153.764 26.7942 156.509 29.0163M96.9241 93.9711H108.999V0.564941H96.9241V93.9711ZM70.4566 93.9711H82.5315V0.564941H70.4566V52.1925C70.3013 53.3228 70.4632 57.7781 68.2829 62.4066C65.3244 68.6863 58.3617 74.3142 56.4477 75.6432V44.2273C56.4477 26.9573 42.0468 23.4304 29.9718 23.4304C16.0142 23.4304 5.93331 31.7005 1.83469 46.2953H18.0727C18.8479 37.4171 18.7839 25.3763 29.9718 25.3763C40.2746 25.3763 43.5972 30.3627 44.0408 40.4571C26.5379 57.728 0.394806 58.8226 0.394806 78.1601C0.394806 87.0388 6.04468 95.0652 21.775 95.0652C31.8554 95.0652 41.1602 89.9591 44.1513 87.891V93.9711H56.4477V80.7364C61.2054 76.9332 66.572 72.2523 70.4567 68.7912L70.4566 93.9711ZM44.1498 45.17L43.9249 83.475C41.0686 86.8957 33.4251 89.6029 27.0484 90.6014C19.1526 91.8376 15.0161 88.2544 15.0161 79.4983C15.0161 66.2376 25.1065 60.9708 44.1498 45.17" fill="#FDFCEF"/>
</svg>
