<svg width="720" height="480" viewBox="0 0 720 480" fill="none" xmlns="http://www.w3.org/2000/svg">
<g clip-path="url(#clip0_1009_1795)">
<rect width="720" height="480" fill="#18584A"/>
<mask id="mask0_1009_1795" style="mask-type:alpha" maskUnits="userSpaceOnUse" x="-273" y="0" width="1440" height="480">
<rect x="-273" width="1440" height="480" fill="#D9D9D9"/>
</mask>
<g mask="url(#mask0_1009_1795)">
<path d="M1278 490.213C1278 416.672 1263.52 343.852 1235.37 275.91C1207.23 207.968 1165.98 146.234 1113.98 94.2329C1061.98 42.2321 1000.24 0.982849 932.303 -27.1598C864.36 -55.3024 791.54 -69.7872 718 -69.7872V490.213H1278Z" fill="#22312D"/>
<path d="M1084 490.213C1084 416.672 1069.52 343.852 1041.37 275.91C1013.23 207.968 971.981 146.234 919.98 94.2329C867.979 42.2321 806.245 0.982849 738.303 -27.1598C670.36 -55.3024 597.54 -69.7872 524 -69.7872V490.213H1084Z" fill="#B8E7DD"/>
<path d="M906 490.213C906 416.672 891.515 343.852 863.373 275.91C835.23 207.968 793.981 146.234 741.98 94.2329C689.979 42.2321 628.245 0.982849 560.303 -27.1598C492.361 -55.3024 419.54 -69.7872 346 -69.7872V490.213H906Z" fill="#FAA237"/>
<path d="M705 490.213C705 416.672 690.515 343.852 662.372 275.91C634.23 207.968 592.98 146.234 540.98 94.2329C488.979 42.2321 427.245 0.982849 359.303 -27.1598C291.36 -55.3024 218.54 -69.7872 145 -69.7872V490.213H705Z" fill="#E7C1FC"/>
<path d="M503.999 490.213C503.999 416.672 489.515 343.852 461.372 275.91C433.229 207.968 391.98 146.234 339.979 94.2329C287.978 42.2321 226.245 0.982849 158.302 -27.1598C90.3599 -55.3024 17.5398 -69.7872 -56.0005 -69.7872V490.213H503.999Z" fill="#090575"/>
<path d="M287 490.213C287 416.672 272.515 343.852 244.372 275.91C216.23 207.968 174.981 146.234 122.98 94.2329C70.979 42.2321 9.245 0.982849 -58.6973 -27.1598C-126.64 -55.3024 -199.46 -69.7872 -273 -69.7872V490.213H287Z" fill="#18584A"/>
</g>
</g>
<defs>
<clipPath id="clip0_1009_1795">
<rect width="720" height="480" fill="white"/>
</clipPath>
</defs>
</svg>
