<svg fill="none" height="480" viewBox="0 0 720 480" width="720" xmlns="http://www.w3.org/2000/svg" xmlns:xlink="http://www.w3.org/1999/xlink"><clipPath id="a"><path d="m0 0h720v480h-720z"/></clipPath><mask id="b" height="480" maskUnits="userSpaceOnUse" width="1440" x="-273" y="0"><path d="m-273 0h1440v480h-1440z" fill="#d9d9d9"/></mask><g clip-path="url(#a)"><path d="m0 0h720v480h-720z" fill="#18584a"/><g mask="url(#b)"><path d="m1278 490.213c0-73.541-14.48-146.361-42.63-214.303-28.14-67.942-69.39-129.676-121.39-181.6771-52-52.0008-113.74-93.250051-181.677-121.3927-67.943-28.1426-140.763-42.6274-214.303-42.6274v560.0002z" fill="#22312d"/><path d="m1084 490.213c0-73.541-14.48-146.361-42.63-214.303-28.14-67.942-69.389-129.676-121.39-181.6771-52.001-52.0008-113.735-93.250051-181.677-121.3927-67.943-28.1426-140.763-42.6274-214.303-42.6274v560.0002z" fill="#b8e7dd"/><path d="m906 490.213c0-73.541-14.485-146.361-42.627-214.303-28.143-67.942-69.392-129.676-121.393-181.6771-52.001-52.0008-113.735-93.250051-181.677-121.3927-67.942-28.1426-140.763-42.6274-214.303-42.6274v560.0002z" fill="#faa237"/><path d="m705 490.213c0-73.541-14.485-146.361-42.628-214.303-28.142-67.942-69.392-129.676-121.392-181.6771-52.001-52.0008-113.735-93.250051-181.677-121.3927-67.943-28.1426-140.763-42.6274-214.303-42.6274v560.0002z" fill="#e7c1fc"/><path d="m503.999 490.213c0-73.541-14.484-146.361-42.627-214.303s-69.392-129.676-121.393-181.6771c-52.001-52.0008-113.734-93.250051-181.677-121.3927-67.9421-28.1426-140.7622-42.6274-214.3025-42.6274v560.0002z" fill="#090575"/><path d="m287 490.213c0-73.541-14.485-146.361-42.628-214.303-28.142-67.942-69.391-129.676-121.392-181.6771-52.001-52.0008-113.735-93.250051-181.6773-121.3927-67.9427-28.1426-140.7627-42.6274-214.3027-42.6274v560.0002z" fill="#18584a"/></g></g></svg>