<svg height="726" viewBox="0 0 700 726" width="700" xmlns="http://www.w3.org/2000/svg"><g fill="none" fill-rule="nonzero"><g transform="translate(0 .631729)"><path d="m0 0h454.372v96.1579h-454.372z" fill="#090575"/><path d="m0 126.000449h454.372v95.0526h-454.372z" fill="#faa237"/><path d="m454.373 221.052449c54.168 0 98.08-49.484 98.08-110.526 0-61.0421-43.912-110.526449-98.08-110.526449z" fill="#b8e7dd"/></g><g transform="translate(-1 504.52626)"><path d="m0 0h450.369v95.0526h-450.369z" fill="#e7c1fc"/><path d="m1 124.894918h450.369v96.1579h-450.369z" fill="#090575"/><path d="m450.369 221.052918c54.168 0 98.081-49.485 98.081-110.527 0-61.0416-43.913-110.525918-98.081-110.525918z" fill="#faa237"/></g><g transform="translate(156.05242 252)"><path d="m98.08038.000137h446.366v95.0526h-446.366z" fill="#f55e22"/><path d="m98.08038 124.895178h446.366v96.1579h-446.366z" fill="#b8e7dd"/><path d="m98.08038 0c-54.1683 0-98.08038 49.484278-98.08038 110.526178 0 61.042 43.91208 110.526 98.08038 110.526z" fill="#e7c1fc"/></g></g></svg>