<svg width="305" height="33" viewBox="0 0 305 33" fill="none" xmlns="http://www.w3.org/2000/svg">
<path d="M292.471 32.3523H278.526V19.7709L266.716 0H281.271L285.672 7.81848L290.117 0H304.585L292.471 19.7259V32.3523Z" fill="#37A78F"/>
<path d="M250.452 12.9409L248.491 19.1418H252.979L251.062 12.9859L250.757 11.4581L250.452 12.9409ZM257.076 32.3523L255.812 28.3083H245.571L244.307 32.3523H230.188L242.738 0H258.949L271.151 32.3523H257.076Z" fill="#37A78F"/>
<path d="M210.722 32.3523H193.335V0H210.635C221.878 0 229.112 5.52686 229.112 16.1762C229.112 26.8255 221.704 32.3523 210.722 32.3523ZM209.851 11.5929H206.931V20.5797H209.851C213.598 20.5797 214.949 18.9171 214.949 16.1312C214.949 12.9859 213.642 11.5929 209.851 11.5929Z" fill="#37A78F"/>
<path d="M178.444 32.3523H164.499V19.7709L152.69 0H167.245L171.646 7.81848L176.091 0H190.559L178.444 19.7259V32.3523Z" fill="#37A78F"/>
<path d="M134.421 10.6044H129.061V14.6934H134.421C136.034 14.6934 137.036 13.8845 137.036 12.6264C137.036 11.4132 136.252 10.6044 134.421 10.6044ZM132.853 24.3991H129.061V32.3523H115.814V0H134.029C146.754 0 150.72 3.54977 150.72 11.0088C150.72 14.963 148.976 17.659 145.054 19.1867C149.325 20.2651 150.153 22.7365 150.153 27.7242V29.7911C150.153 30.9145 150.676 31.903 151.635 32.3523H137.21C136.339 31.903 136.034 31.0043 136.034 30.1955V27.3647C136.034 25.0281 135.337 24.3991 132.853 24.3991Z" fill="#37A78F"/>
<path d="M109.655 21.4784V32.3523H78.6276V0H109.263V10.4246H91.6139V12.6264H108.479V19.0969H91.6139V21.4784H109.655Z" fill="#37A78F"/>
<path d="M62.4997 32.3523H46.2451L34.1304 0H48.5983L54.1763 17.0748L54.4814 18.9171L54.7864 17.1198L60.4951 0H75.0066L62.4997 32.3523Z" fill="#37A78F"/>
<path d="M31.0275 21.4784V32.3523H0V0H30.6353V10.4246H12.9862V12.6264H29.8509V19.0969H12.9862V21.4784H31.0275Z" fill="#37A78F"/>
</svg>
