<svg width="1400" height="79" viewBox="0 0 1200 68" fill="none" xmlns="http://www.w3.org/2000/svg">
  <path d="M1152.27 123.897H1097.33V75.7147L1050.8 0H1108.15L1125.49 29.9417L1143 0H1200L1152.27 75.5426V123.897Z" fill="#18584A"/>
  <path d="M986.725 49.5587L978.999 73.3056H996.682L989.128 49.7308L987.926 43.8801L986.725 49.5587ZM1012.82 123.897L1007.84 108.41H967.495L962.517 123.897H906.89L956.336 0H1020.2L1068.28 123.897H1012.82Z" fill="#18584A"/>
  <path d="M830.201 123.897H761.697V0H829.857C874.153 0 902.653 21.1657 902.653 61.9484C902.653 102.731 873.466 123.897 830.201 123.897ZM826.767 44.3963H815.264V78.8121H826.767C841.532 78.8121 846.854 72.4452 846.854 61.7763C846.854 49.7308 841.704 44.3963 826.767 44.3963Z" fill="#18584A"/>
  <path d="M703.032 123.897H648.092V75.7147L601.564 0H658.908L676.249 29.9417L693.761 0H750.761L703.032 75.5426V123.897Z" fill="#18584A"/>
  <path d="M529.591 40.6106H508.473V56.2698H529.591C535.943 56.2698 539.892 53.1724 539.892 48.3541C539.892 43.708 536.802 40.6106 529.591 40.6106ZM523.41 93.4388H508.473V123.897H456.28V0H528.046C578.179 0 593.802 13.5942 593.802 42.1593C593.802 57.3022 586.935 67.627 571.483 73.4777C588.308 77.6075 591.57 87.0719 591.57 106.173V114.088C591.57 118.39 593.631 122.176 597.408 123.897H540.579C537.145 122.176 535.943 118.734 535.943 115.637V104.796C535.943 95.8479 533.196 93.4388 523.41 93.4388Z" fill="#18584A"/>
  <path d="M432.017 82.2537V123.897H309.775V0H430.472V39.9223H360.938V48.3541H427.382V73.1335H360.938V82.2537H432.017Z" fill="#18584A"/>
  <path d="M246.236 123.897H182.196L134.467 0H191.467L213.443 65.39L214.645 72.4452L215.847 65.562L238.338 0H295.51L246.236 123.897Z" fill="#18584A"/>
  <path d="M122.242 82.2537V123.897H0V0H120.697V39.9223H51.163V48.3541H117.606V73.1335H51.163V82.2537H122.242Z" fill="#18584A"/>
</svg>
