<?xml version="1.0" encoding="UTF-8"?>
<svg width="305px" height="33px" viewBox="0 0 305 33" version="1.1" xmlns="http://www.w3.org/2000/svg" xmlns:xlink="http://www.w3.org/1999/xlink">
    <title>everyday-logo</title>
    <g id="Page-1" stroke="none" stroke-width="1" fill="none" fill-rule="evenodd">
        <g id="everyday-logo" fill="#FDFCEF" fill-rule="nonzero">
            <polygon id="Path" points="292.471 32.3523 278.526 32.3523 278.526 19.7709 266.716 0 281.271 0 285.672 7.81848 290.117 0 304.585 0 292.471 19.7259"></polygon>
            <path d="M250.452,12.9409 L248.491,19.1418 L252.979,19.1418 L251.062,12.9859 L250.757,11.4581 L250.452,12.9409 Z M257.076,32.3523 L255.812,28.3083 L245.571,28.3083 L244.307,32.3523 L230.188,32.3523 L242.738,0 L258.949,0 L271.151,32.3523 L257.076,32.3523 Z" id="Shape"></path>
            <path d="M210.722,32.3523 L193.335,32.3523 L193.335,0 L210.635,0 C221.878,0 229.112,5.52686 229.112,16.1762 C229.112,26.8255 221.704,32.3523 210.722,32.3523 Z M209.851,11.5929 L206.931,11.5929 L206.931,20.5797 L209.851,20.5797 C213.598,20.5797 214.949,18.9171 214.949,16.1312 C214.949,12.9859 213.642,11.5929 209.851,11.5929 Z" id="Shape"></path>
            <polygon id="Path" points="178.444 32.3523 164.499 32.3523 164.499 19.7709 152.69 0 167.245 0 171.646 7.81848 176.091 0 190.559 0 178.444 19.7259"></polygon>
            <path d="M134.421,10.6044 L129.061,10.6044 L129.061,14.6934 L134.421,14.6934 C136.034,14.6934 137.036,13.8845 137.036,12.6264 C137.036,11.4132 136.252,10.6044 134.421,10.6044 Z M132.853,24.3991 L129.061,24.3991 L129.061,32.3523 L115.814,32.3523 L115.814,0 L134.029,0 C146.754,0 150.72,3.54977 150.72,11.0088 C150.72,14.963 148.976,17.659 145.054,19.1867 C149.325,20.2651 150.153,22.7365 150.153,27.7242 L150.153,29.7911 C150.153,30.9145 150.676,31.903 151.635,32.3523 L137.21,32.3523 C136.339,31.903 136.034,31.0043 136.034,30.1955 L136.034,27.3647 C136.034,25.0281 135.337,24.3991 132.853,24.3991 Z" id="Shape"></path>
            <polygon id="Path" points="109.655 21.4784 109.655 32.3523 78.6276 32.3523 78.6276 0 109.263 0 109.263 10.4246 91.6139 10.4246 91.6139 12.6264 108.479 12.6264 108.479 19.0969 91.6139 19.0969 91.6139 21.4784"></polygon>
            <polygon id="Path" points="62.4997 32.3523 46.2451 32.3523 34.1304 0 48.5983 0 54.1763 17.0748 54.4814 18.9171 54.7864 17.1198 60.4951 0 75.0066 0"></polygon>
            <polygon id="Path" points="31.0275 21.4784 31.0275 32.3523 0 32.3523 0 0 30.6353 0 30.6353 10.4246 12.9862 10.4246 12.9862 12.6264 29.8509 12.6264 29.8509 19.0969 12.9862 19.0969 12.9862 21.4784"></polygon>
        </g>
    </g>
</svg>