<svg width="1200" height="84" viewBox="0 0 1200 84" fill="none" xmlns="http://www.w3.org/2000/svg">
<g clip-path="url(#clip0_807_6031)">
<path d="M1152.27 139.897H1097.33V91.7147L1050.8 16H1108.15L1125.49 45.9417L1143 16H1200L1152.27 91.5426V139.897Z" fill="#18584A"/>
<path d="M986.725 65.5587L978.999 89.3056H996.682L989.128 65.7308L987.926 59.8801L986.725 65.5587ZM1012.82 139.897L1007.84 124.41H967.495L962.517 139.897H906.89L956.336 16H1020.2L1068.28 139.897H1012.82Z" fill="#18584A"/>
<path d="M830.201 139.897H761.697V16H829.857C874.153 16 902.653 37.1657 902.653 77.9484C902.653 118.731 873.466 139.897 830.201 139.897ZM826.767 60.3963H815.264V94.8121H826.767C841.532 94.8121 846.854 88.4452 846.854 77.7763C846.854 65.7308 841.704 60.3963 826.767 60.3963Z" fill="#18584A"/>
<path d="M703.032 139.897H648.092V91.7147L601.564 16H658.908L676.249 45.9417L693.761 16H750.761L703.032 91.5426V139.897Z" fill="#18584A"/>
<path d="M529.591 56.6106H508.473V72.2698H529.591C535.943 72.2698 539.892 69.1724 539.892 64.3541C539.892 59.708 536.802 56.6106 529.591 56.6106ZM523.41 109.439H508.473V139.897H456.28V16H528.046C578.179 16 593.802 29.5942 593.802 58.1593C593.802 73.3022 586.935 83.627 571.483 89.4777C588.308 93.6075 591.57 103.072 591.57 122.173V130.088C591.57 134.39 593.631 138.176 597.408 139.897H540.579C537.145 138.176 535.943 134.734 535.943 131.637V120.796C535.943 111.848 533.196 109.439 523.41 109.439Z" fill="#18584A"/>
<path d="M432.017 98.2537V139.897H309.775V16H430.472V55.9223H360.938V64.3541H427.382V89.1335H360.938V98.2537H432.017Z" fill="#18584A"/>
<path d="M246.236 139.897H182.196L134.467 16H191.467L213.443 81.39L214.645 88.4452L215.847 81.562L238.338 16H295.51L246.236 139.897Z" fill="#18584A"/>
<path d="M122.242 98.2537V139.897H0V16H120.697V55.9223H51.163V64.3541H117.606V89.1335H51.163V98.2537H122.242Z" fill="#18584A"/>
</g>
<defs>
<clipPath id="clip0_807_6031">
<rect width="1200" height="84" fill="white"/>
</clipPath>
</defs>
</svg>
