<svg width="13" height="102" viewBox="0 0 13 102" fill="none" xmlns="http://www.w3.org/2000/svg">
<path d="M6.89844 1C13.5651 9 13.5651 12.3333 6.89844 11C0.231771 9.66667 0.23177 13 6.89844 21C13.5651 29 13.5651 32.3333 6.89844 31C0.23177 29.6667 0.23177 33 6.89844 41C13.5651 49 13.5651 52.3333 6.89844 51C0.231769 49.6667 0.231769 53 6.89843 61C13.5651 69 13.5651 72.3333 6.89843 71C0.231768 69.6667 0.231768 73 6.89843 81C13.5651 89 13.5651 92.3333 6.89843 91C0.231767 89.6667 0.231767 93 6.89843 101" stroke="#18584A" stroke-width="2"/>
</svg>
