<?xml version="1.0" encoding="UTF-8"?>
<svg width="283px" height="128px" viewBox="0 0 283 128" version="1.1" xmlns="http://www.w3.org/2000/svg" xmlns:xlink="http://www.w3.org/1999/xlink">
    <title>ninja</title>
    <g id="Page-1" stroke="none" stroke-width="1" fill="none" fill-rule="evenodd">
        <g id="ninja" transform="translate(0.420319, 0.000000)" fill="#FDFCEF" fill-rule="nonzero">
            <path d="M176.586184,128 L197.202227,114.167438 L197.617694,113.041302 C197.889428,112.314634 204.249975,94.879931 204.249975,70.4889469 L204.249975,23.9115165 L202.404104,21.9388457 L202.404104,70.4889469 C202.404104,94.5444636 196.155558,111.683699 195.883824,112.394367 L195.67609,112.953569 L174.021379,127.425065 L176.586184,127.992 L176.586184,128 Z" id="Path"></path>
            <polygon id="Path" points="3.00462226 110.989031 21.0156198 107.730358 21.0156198 50.7465057 19.1697759 48.0150334 19.1697759 106.181021 1.3745122 109.447428"></polygon>
            <polygon id="Path" points="70.8536969 11.9635716 70.8536969 98.4498051 58.6598049 99.7676745 59.826474 101.452745 72.6993008 100.118875 72.6993008 13.2573876"></polygon>
            <polygon id="Path" points="87.3942647 98.058871 102.72843 96.2618005 102.72843 16.180807 100.874559 14.4876568 100.874559 94.6167305 85.9638618 96.4215342"></polygon>
            <polygon id="Path" points="162.04322 91.5420574 175.427781 90.7511224 175.427781 22.8975944 173.565911 20.7572166 173.565911 89.0103188 160.620817 89.760987"></polygon>
            <polygon id="Path" points="130.759688 51.3614403 130.759688 91.7812579 114.546588 93.4983281 115.968991 95.1036648 132.605559 93.4185946 132.605559 54.3403799"></polygon>
            <polygon id="Path" points="239.065514 59.1403899 243.987658 46.0024958 243.308456 43.1112898 237.04391 59.1403899"></polygon>
            <polygon id="Path" points="231.474298 75.4332238 227.37509 86.6940473 208.756918 87.4129821 209.396119 89.3137861 228.685759 88.4831177 233.424169 75.4332238"></polygon>
            <polygon id="Path" points="254.135945 23.4805289 279.250398 85.3761779 261.08796 85.456178 262.102629 87.2529818 281.999737 87.2369817 256.764751 25.0219188"></polygon>
            <polygon id="Path" points="57.5888693 97.8431372 17.3797455 42.3446216 17.3797455 104.479951 0 107.562624 0 0 13.7599513 2.72341901 52.6507257 60.6177263 52.6507257 8.6574047 68.8638261 10.8297559 68.8638261 96.6610014"></polygon>
            <polygon id="Path" points="98.8929554 92.8356601 98.8929554 14.41579 85.3326604 12.7545866 85.3326604 94.4887302"></polygon>
            <polygon id="Path" points="125.382077 17.0272621 114.586588 16.0768602 114.586588 91.6455243 128.969818 89.9841875 128.969818 45.7947621 160.18935 87.8519164 171.59204 87.1409815 171.59204 20.5812695 157.20081 19.3912671 157.20081 59.6433243"></polygon>
            <path d="M234.902305,23.2012217 L209.124385,85.4641781 L226.15242,84.7535099 L230.251629,73.4844198 L256.27755,73.4844198 L260.192758,83.3956404 L276.301058,83.3956404 L252.082341,23.6085292 L234.902305,23.2012217 Z M252.138341,60.9534603 L234.390838,60.9534603 L243.316456,38.0640793 L252.138341,60.9534603 Z" id="Shape"></path>
            <path d="M194.069954,111.675966 C194.069954,111.675966 200.4145,94.4569968 200.4145,70.5052136 L200.4145,21.7714054 L185.192335,21.0606039 L185.192335,70.5052136 C185.192335,103.929017 173.110443,125.779995 173.110443,125.779995 L194.069954,111.675966 Z" id="Path"></path>
            <path d="M269.981045,25.9962675 C269.981045,24.3510374 268.519709,23.033248 266.690372,23.033248 C264.859701,23.033248 263.397298,24.3510374 263.397298,25.9962675 C263.397298,27.6413909 264.875434,28.9592603 266.690372,28.9592603 C268.503709,28.9592603 269.981045,27.6333909 269.981045,25.9962675 Z M269.437044,25.9962675 C269.437044,27.3539237 268.207708,28.4720593 266.690372,28.4720593 C265.171168,28.4720593 263.940766,27.3539237 263.940766,25.9962675 C263.940766,24.638558 265.171168,23.5204223 266.690372,23.5204223 C268.207708,23.5204223 269.437044,24.6066113 269.437044,25.9962675 Z M268.271708,27.697391 L267.263706,26.3396815 C267.479707,26.3396815 268.223708,26.0921077 268.223708,25.3333861 C268.223708,24.7024248 267.591707,24.3031173 266.954372,24.3031173 L265.418902,24.3031173 L265.418902,27.697391 L265.98637,27.697391 L265.98637,26.3556549 L266.594371,26.3556549 L267.567707,27.697391 L268.263708,27.697391 L268.271708,27.697391 Z M267.639707,25.3333861 C267.639707,25.6847735 267.279706,25.9084006 266.954372,25.9084006 L265.98637,25.9084006 L265.98637,24.7343715 L266.954372,24.7343715 C267.279706,24.7343715 267.639707,24.9579987 267.639707,25.3333861 Z" id="Shape"></path>
        </g>
    </g>
</svg>