<?xml version="1.0" encoding="UTF-8"?>
<svg width="700px" height="1036px" viewBox="0 0 700 1036" version="1.1" xmlns="http://www.w3.org/2000/svg" xmlns:xlink="http://www.w3.org/1999/xlink">
    <title>Artboard</title>
    <g id="Artboard" stroke="none" stroke-width="1" fill="none" fill-rule="evenodd">
        <g id="contact-bg" transform="translate(-1.000000, 29.631729)" fill-rule="nonzero">
            <g id="Group-10120964" transform="translate(1.000000, 0.000000)">
                <rect id="Rectangle" fill="#090575" x="0" y="0" width="454.372" height="96.1579"></rect>
                <rect id="Rectangle" fill="#FAA237" x="0" y="126.000449" width="454.372" height="95.0526"></rect>
                <path d="M454.373,221.052449 C508.541,221.052449 552.453,171.568449 552.453,110.526449 C552.453,49.484349 508.541,0 454.373,0 L454.373,221.052449 Z" id="Path" fill="#B8E7DD"></path>
            </g>
            <g id="Group-10120963" transform="translate(0.000000, 503.894531)">
                <rect id="Rectangle" fill="#E7C1FC" x="0" y="7.10542736e-15" width="450.369" height="95.0526"></rect>
                <rect id="Rectangle" fill="#090575" x="1" y="124.894918" width="450.369" height="96.1579"></rect>
                <path d="M450.369,221.052918 C504.537,221.052918 548.45,171.567918 548.45,110.525918 C548.45,49.484318 504.537,1.42108547e-14 450.369,1.42108547e-14 L450.369,221.052918 Z" id="Path" fill="#FAA237"></path>
            </g>
            <g id="Group-10120962" transform="translate(157.052420, 251.368271)">
                <rect id="Rectangle" fill="#F55E22" x="98.08038" y="0.000137" width="446.366" height="95.0526"></rect>
                <rect id="Rectangle" fill="#B8E7DD" x="98.08038" y="124.895178" width="446.366" height="96.1579"></rect>
                <path d="M98.08038,0 C43.91208,0 0,49.484278 0,110.526178 C0,171.568178 43.91208,221.052178 98.08038,221.052178 L98.08038,0 Z" id="Path" fill="#E7C1FC"></path>
            </g>
        </g>
        <g id="Group-10120962" transform="translate(156.052420, 785.000000)" fill-rule="nonzero">
            <rect id="Rectangle" fill="#F55E22" x="98.08038" y="0.000137" width="446.366" height="95.0526"></rect>
            <rect id="Rectangle" fill="#B8E7DD" x="98.08038" y="124.895178" width="446.366" height="96.1579"></rect>
            <path d="M98.08038,0 C43.91208,0 0,49.484278 0,110.526178 C0,171.568178 43.91208,221.052178 98.08038,221.052178 L98.08038,0 Z" id="Path" fill="#E7C1FC"></path>
        </g>
    </g>
</svg>