<svg fill="none" height="972" viewBox="0 0 1440 972" width="1440" xmlns="http://www.w3.org/2000/svg"><path d="m0 0h1440v928h-1440z" fill="#18584a"/><g fill="#090575"><path d="m240 528h240v109.277h-240z" transform="matrix(-1 0 0 -1 480 1056)"/><path d="m120 298.723c-66.2742 0-119.99999054 53.726-119.99998474 120h239.99998474c0-66.274-53.726-120-120-120z"/><path d="m480 528h240v240h-240z" transform="matrix(-1 0 0 -1 960 1056)"/><path d="m360 168c-66.274 0-120 53.726-120 120h240c0-66.274-53.726-120-120-120z"/><path d="m720 528h240v109.277h-240z" transform="matrix(-1 0 0 -1 1440 1056)"/><path d="m600 298.723c-66.274 0-120 53.726-120 120h240c0-66.274-53.726-120-120-120z"/><path d="m960 528h240v240h-240z" transform="matrix(-1 0 0 -1 1920 1056)"/><path d="m840 168c-66.274 0-120 53.726-120 120h240c0-66.274-53.726-120-120-120z"/><path d="m1200 528h240v109.277h-240z" transform="matrix(-1 0 0 -1 2400 1056)"/><path d="m1080 298.723c-66.27 0-120 53.726-120 120h240c0-66.274-53.73-120-120-120z"/><path d="m1440 528h240v240h-240z" transform="matrix(-1 0 0 -1 2880 1056)"/><path d="m1320 168c-66.27 0-120 53.726-120 120h240c0-66.274-53.73-120-120-120z"/><path d="m0 528h1440v444h-1440z"/></g></svg>