<svg width="1440" height="972" viewBox="0 0 1440 972" fill="none" xmlns="http://www.w3.org/2000/svg">
<rect width="1440" height="928" fill="#18584A"/>
<rect x="240" y="528" width="240" height="109.277" transform="rotate(180 240 528)" fill="#090575"/>
<path d="M120 298.723C53.7258 298.723 9.46492e-06 352.449 1.52588e-05 418.723L240 418.723C240 352.449 186.274 298.723 120 298.723Z" fill="#090575"/>
<rect x="480" y="528" width="240" height="240" transform="rotate(180 480 528)" fill="#090575"/>
<path d="M360 168C293.726 168 240 221.726 240 288L480 288C480 221.726 426.274 168 360 168Z" fill="#090575"/>
<rect x="720" y="528" width="240" height="109.277" transform="rotate(180 720 528)" fill="#090575"/>
<path d="M600 298.723C533.726 298.723 480 352.449 480 418.723L720 418.723C720 352.449 666.274 298.723 600 298.723Z" fill="#090575"/>
<rect x="960" y="528" width="240" height="240" transform="rotate(180 960 528)" fill="#090575"/>
<path d="M840 168C773.726 168 720 221.726 720 288L960 288C960 221.726 906.274 168 840 168Z" fill="#090575"/>
<rect x="1200" y="528" width="240" height="109.277" transform="rotate(180 1200 528)" fill="#090575"/>
<path d="M1080 298.723C1013.73 298.723 960 352.449 960 418.723L1200 418.723C1200 352.449 1146.27 298.723 1080 298.723Z" fill="#090575"/>
<rect x="1440" y="528" width="240" height="240" transform="rotate(180 1440 528)" fill="#090575"/>
<path d="M1320 168C1253.73 168 1200 221.726 1200 288L1440 288C1440 221.726 1386.27 168 1320 168Z" fill="#090575"/>
<rect y="528" width="1440" height="444" fill="#090575"/>
</svg>
