<?xml version="1.0" encoding="UTF-8"?>
<svg width="602px" height="12px" viewBox="0 0 602 12" version="1.1" xmlns="http://www.w3.org/2000/svg" xmlns:xlink="http://www.w3.org/1999/xlink">
    <title>Group</title>
    <g id="Page-1" stroke="none" stroke-width="1" fill="none" fill-rule="evenodd">
        <g id="Group" transform="translate(1.000000, 1.000000)" stroke="#22312D" stroke-width="2">
            <g id="Frame-12718" transform="translate(0.000000, 0.000000)">
                <path d="M0,5 C8,-1.66666675 11.3333,-1.66666675 10,5 C8.6667,11.6667003 12,11.6667003 20,5 C28,-1.66666675 31.3333,-1.66666675 30,5 C28.6667,11.6667003 32,11.6667003 40,5 C48,-1.66666675 51.33333,-1.66666675 50,5 C48.666667,11.6667003 52,11.6667003 60,5 C68,-1.66666675 71.3333,-1.66666675 70,5 C68.6667,11.6667003 72,11.6667003 80,5 C88,-1.66666675 91.3333,-1.66666675 90,5 C88.6667,11.6667003 92,11.6667003 100,5" id="Path"></path>
                <path d="M100,5 C108,-1.66666675 111.3333,-1.66666675 110,5 C108.6667,11.6667003 112,11.6667003 120,5 C128,-1.66666675 131.3333,-1.66666675 130,5 C128.6667,11.6667003 132,11.6667003 140,5 C148,-1.66666675 151.333,-1.66666675 150,5 C148.6667,11.6667003 152,11.6667003 160,5 C168,-1.66666675 171.333,-1.66666675 170,5 C168.667,11.6667003 172,11.6667003 180,5 C188,-1.66666675 191.333,-1.66666675 190,5 C188.667,11.6667003 192,11.6667003 200,5" id="Path"></path>
                <path d="M200,5 C208,-1.66666675 211.333,-1.66666675 210,5 C208.667,11.6667003 212,11.6667003 220,5 C228,-1.66666675 231.333,-1.66666675 230,5 C228.667,11.6667003 232,11.6667003 240,5 C248,-1.66666675 251.333,-1.66666675 250,5 C248.667,11.6667003 252,11.6667003 260,5 C268,-1.66666675 271.333,-1.66666675 270,5 C268.667,11.6667003 272,11.6667003 280,5 C288,-1.66666675 291.333,-1.66666675 290,5 C288.667,11.6667003 292,11.6667003 300,5" id="Path"></path>
            </g>
            <g id="Frame-12718" transform="translate(300.000000, 0.000000)">
                <path d="M0,5 C8,-1.66666675 11.3333,-1.66666675 10,5 C8.6667,11.6667003 12,11.6667003 20,5 C28,-1.66666675 31.3333,-1.66666675 30,5 C28.6667,11.6667003 32,11.6667003 40,5 C48,-1.66666675 51.33333,-1.66666675 50,5 C48.666667,11.6667003 52,11.6667003 60,5 C68,-1.66666675 71.3333,-1.66666675 70,5 C68.6667,11.6667003 72,11.6667003 80,5 C88,-1.66666675 91.3333,-1.66666675 90,5 C88.6667,11.6667003 92,11.6667003 100,5" id="Path"></path>
                <path d="M100,5 C108,-1.66666675 111.3333,-1.66666675 110,5 C108.6667,11.6667003 112,11.6667003 120,5 C128,-1.66666675 131.3333,-1.66666675 130,5 C128.6667,11.6667003 132,11.6667003 140,5 C148,-1.66666675 151.333,-1.66666675 150,5 C148.6667,11.6667003 152,11.6667003 160,5 C168,-1.66666675 171.333,-1.66666675 170,5 C168.667,11.6667003 172,11.6667003 180,5 C188,-1.66666675 191.333,-1.66666675 190,5 C188.667,11.6667003 192,11.6667003 200,5" id="Path"></path>
                <path d="M200,5 C208,-1.66666675 211.333,-1.66666675 210,5 C208.667,11.6667003 212,11.6667003 220,5 C228,-1.66666675 231.333,-1.66666675 230,5 C228.667,11.6667003 232,11.6667003 240,5 C248,-1.66666675 251.333,-1.66666675 250,5 C248.667,11.6667003 252,11.6667003 260,5 C268,-1.66666675 271.333,-1.66666675 270,5 C268.667,11.6667003 272,11.6667003 280,5 C288,-1.66666675 291.333,-1.66666675 290,5 C288.667,11.6667003 292,11.6667003 300,5" id="Path"></path>
            </g>
        </g>
    </g>
</svg>