<svg width="223" height="226" viewBox="0 0 223 226" fill="none" xmlns="http://www.w3.org/2000/svg">
<path d="M111.5 0.893066L113.141 97.5L134.81 3.34564L116.35 98.183L157.101 10.5962L119.348 99.519L177.399 22.3278L122.003 101.45L194.817 38.0277L124.198 103.891L208.594 57.0098L125.839 106.736L218.127 78.4445L126.853 109.86L223 101.395L127.196 113.127L223 124.858L126.853 116.393L218.127 147.809L125.839 119.518L208.594 169.243L124.198 122.362L194.817 188.226L122.003 124.803L177.399 203.925L119.348 126.734L157.101 215.657L116.35 128.07L134.81 222.908L113.141 128.753L111.5 225.36L109.859 128.753L88.1901 222.908L106.65 128.07L65.8991 215.657L103.652 126.734L45.6009 203.925L100.997 124.803L28.1829 188.226L98.8017 122.362L14.4063 169.243L97.161 119.518L4.87308 147.809L96.147 116.393L0 124.858L95.804 113.127L0 101.395L96.147 109.86L4.87308 78.4445L97.161 106.736L14.4063 57.0098L98.8017 103.891L28.1829 38.0277L100.997 101.45L45.6009 22.3278L103.652 99.519L65.8991 10.5962L106.65 98.183L88.1901 3.34564L109.859 97.5L111.5 0.893066Z" fill="#FEF9F1"/>
</svg>
