<?xml version="1.0" encoding="UTF-8"?>
<svg width="839px" height="502px" viewBox="0 0 839 502" version="1.1" xmlns="http://www.w3.org/2000/svg" xmlns:xlink="http://www.w3.org/1999/xlink">
    <title>sun-bg</title>
    <g id="Page-1" stroke="none" stroke-width="1" fill="none" fill-rule="evenodd">
        <g id="sun-bg" transform="translate(0.000000, -0.000000)" fill="#F4F2E3" fill-rule="nonzero">
            <polygon id="Path" points="419.5 0 425.673 432.06 507.199 10.9688 437.749 435.114 591.066 43.3956 449.027 441.089 667.434 95.863 459.015 449.724 732.966 166.079 467.275 460.642 784.799 250.974 473.448 473.365 820.666 346.837 477.263 487.337 839 449.479 478.554 501.947 360.447 501.947 0 449.479 361.737 487.337 18.3341 346.837 365.552 473.365 54.2012 250.974 371.725 460.642 106.034 166.079 379.986 449.724 171.566 95.863 389.973 441.089 247.934 43.3956 401.251 435.114 331.801 10.9688 413.327 432.06"></polygon>
        </g>
    </g>
</svg>