<svg height="502" viewBox="0 0 839 502" width="839" xmlns="http://www.w3.org/2000/svg"><path d="m419.5 0 6.173 432.06 81.526-421.0912-69.45 424.1452 153.317-391.7184-142.039 397.6934 218.407-345.226-208.419 353.861 273.951-283.645-265.691 294.563 317.524-209.668-311.351 222.391 347.218-126.528-343.403 140.5 361.737-37.858-360.446 52.468h-118.107l-360.447-52.468 361.737 37.858-343.4029-140.5 347.2179 126.528-311.3508-222.391 317.5238 209.668-265.691-294.563 273.952 283.645-208.42-353.861 218.407 345.226-142.039-397.6934 153.317 391.7184-69.45-424.1452 81.526 421.0912z" fill="#f4f2e3"/></svg>